<svg width="320" height="190" viewBox="0 0 320 190" fill="none" xmlns="http://www.w3.org/2000/svg" role="img" aria-label="GitHub statistics for AnkitPorwal04">
  <style>
    .header { font: 600 18px 'Segoe UI', Ubuntu, Sans-Serif; fill: #6c63ff; }
    .stat { font: 400 14px 'Segoe UI', Ubuntu, "Helvetica Neue", Sans-Serif; fill: #808080; }
    .value { font-weight: 600; }
    @keyframes fadeIn { from { opacity: 0; transform: translateY(6px); } to { opacity: 1; transform: translateY(0); } }
    @keyframes slideIn { from { opacity: 0; transform: translateX(-10px); } to { opacity: 1; } }
    .stagger { opacity: 0; animation: slideIn 0.45s ease-in-out forwards; }
    .fade { opacity: 0; animation: fadeIn 0.6s ease-in-out forwards; }
  </style>
  <rect x="0.5" y="0.5" rx="6" width="319" height="189" fill="transparent" stroke="transparent"/>
  <text x="25" y="30" class="header fade">Ankit Porwal's GitHub Stats</text>
  
    <g class="stagger" style="animation-delay:450ms" transform="translate(25, 55)">
      <g transform="translate(0, -9)"><svg viewBox="0 0 16 16" width="16" height="16" fill="#6c63ff"><path d="M8 .25a.75.75 0 0 1 .673.418l1.882 3.815 4.21.612a.75.75 0 0 1 .416 1.279l-3.046 2.97.719 4.192a.75.75 0 0 1-1.088.791L8 12.347l-3.766 1.98a.75.75 0 0 1-1.088-.79l.72-4.194L.818 6.374a.75.75 0 0 1 .416-1.28l4.21-.611L7.327.668A.75.75 0 0 1 8 .25Z"/></svg></g>
      <text class="stat" x="26" y="0">Total Stars Earned:</text>
      <text class="stat value" x="220" y="0">129</text>
    </g>
    <g class="stagger" style="animation-delay:600ms" transform="translate(25, 80)">
      <g transform="translate(0, -9)"><svg viewBox="0 0 16 16" width="16" height="16" fill="#6c63ff"><path d="M11.93 8.5a4.002 4.002 0 0 1-7.86 0H.75a.75.75 0 0 1 0-1.5h3.32a4.002 4.002 0 0 1 7.86 0h3.32a.75.75 0 0 1 0 1.5Zm-1.43-.75a2.5 2.5 0 1 0-5 0 2.5 2.5 0 0 0 5 0Z"/></svg></g>
      <text class="stat" x="26" y="0">Total Commits (2021–2026):</text>
      <text class="stat value" x="220" y="0">1.1k</text>
    </g>
    <g class="stagger" style="animation-delay:750ms" transform="translate(25, 105)">
      <g transform="translate(0, -9)"><svg viewBox="0 0 16 16" width="16" height="16" fill="#6c63ff"><path d="M1.5 3.25a2.25 2.25 0 1 1 3 2.122v5.256a2.251 2.251 0 1 1-1.5 0V5.372A2.25 2.25 0 0 1 1.5 3.25Zm5.677-.177L9.573.677A.25.25 0 0 1 10 .854V2.5h1A2.5 2.5 0 0 1 13.5 5v5.628a2.251 2.251 0 1 1-1.5 0V5a1 1 0 0 0-1-1h-1v1.646a.25.25 0 0 1-.427.177L7.177 3.427a.25.25 0 0 1 0-.354ZM3.75 2.5a.75.75 0 1 0 0 1.5.75.75 0 0 0 0-1.5Zm0 9.5a.75.75 0 1 0 0 1.5.75.75 0 0 0 0-1.5Zm8.25.75a.75.75 0 1 0 1.5 0 .75.75 0 0 0-1.5 0Z"/></svg></g>
      <text class="stat" x="26" y="0">Total PRs:</text>
      <text class="stat value" x="220" y="0">6</text>
    </g>
    <g class="stagger" style="animation-delay:900ms" transform="translate(25, 130)">
      <g transform="translate(0, -9)"><svg viewBox="0 0 16 16" width="16" height="16" fill="#6c63ff"><path d="M8 9.5a1.5 1.5 0 1 0 0-3 1.5 1.5 0 0 0 0 3Z M8 0a8 8 0 1 1 0 16A8 8 0 0 1 8 0ZM1.5 8a6.5 6.5 0 1 0 13 0 6.5 6.5 0 0 0-13 0Z"/></svg></g>
      <text class="stat" x="26" y="0">Total Issues:</text>
      <text class="stat value" x="220" y="0">0</text>
    </g>
    <g class="stagger" style="animation-delay:1050ms" transform="translate(25, 155)">
      <g transform="translate(0, -9)"><svg viewBox="0 0 16 16" width="16" height="16" fill="#6c63ff"><path d="M2 5.5a3.5 3.5 0 1 1 5.898 2.549 5.508 5.508 0 0 1 3.034 4.084.75.75 0 1 1-1.482.235 4 4 0 0 0-7.9 0 .75.75 0 0 1-1.482-.236A5.507 5.507 0 0 1 3.102 8.05 3.493 3.493 0 0 1 2 5.5ZM11 4a3.001 3.001 0 0 1 2.22 5.018 5.01 5.01 0 0 1 2.56 3.012.749.749 0 0 1-.885.954.752.752 0 0 1-.549-.514 3.507 3.507 0 0 0-2.522-2.372.75.75 0 0 1-.574-.73v-.352a.75.75 0 0 1 .416-.672A1.5 1.5 0 0 0 11 5.5.75.75 0 0 1 11 4Z"/></svg></g>
      <text class="stat" x="26" y="0">Followers:</text>
      <text class="stat value" x="220" y="0">16</text>
    </g>
</svg>